<svg width="170" height="92" viewBox="0 0 170 92" fill="none" xmlns="http://www.w3.org/2000/svg">
<rect x="0.5" y="0.5" width="169" height="91" rx="3.5" stroke="#AFB1B8"/>
<path d="M56.1462 37.4029H56.1433C53.7453 37.4029 51.8013 39.1305 51.8013 41.2615V41.2641C51.8013 43.3952 53.7453 45.1228 56.1433 45.1228H56.1462C58.5442 45.1228 60.4882 43.3952 60.4882 41.2641V41.2615C60.4882 39.1305 58.5442 37.4029 56.1462 37.4029Z" fill="#AFB1B8"/>
<path d="M88.195 36.1693C88.1882 33.2093 86.8623 30.3723 84.5074 28.279C82.1525 26.1857 78.9604 25.0067 75.6297 25V25C72.298 25.0054 69.1045 26.1838 66.7484 28.2772C64.3922 30.3706 63.0655 33.2085 63.0587 36.1693V52.4922C63.0587 52.4922 88.1922 50.0045 88.195 36.1719V36.1693Z" fill="#AFB1B8"/>
<path d="M43 57.8495C43.006 59.9091 43.9291 61.8829 45.5676 63.3395C47.2061 64.7961 49.4267 65.6171 51.7442 65.6231C54.0612 65.6171 56.2814 64.7964 57.9197 63.3404C59.5581 61.8843 60.4816 59.9112 60.4884 57.8521V46.4944C60.4884 46.4944 43 48.2267 43 57.8495ZM51.7442 59.8845C51.2913 59.8845 50.8486 59.7652 50.472 59.5416C50.0955 59.318 49.802 59.0001 49.6287 58.6283C49.4554 58.2565 49.41 57.8473 49.4984 57.4525C49.5867 57.0578 49.8048 56.6952 50.125 56.4106C50.4453 56.126 50.8533 55.9322 51.2975 55.8537C51.7416 55.7752 52.202 55.8155 52.6205 55.9695C53.0389 56.1235 53.3965 56.3843 53.6481 56.719C53.8997 57.0536 54.034 57.4471 54.034 57.8495C54.0351 58.1174 53.9767 58.3829 53.8622 58.6306C53.7476 58.8784 53.5791 59.1037 53.3664 59.2934C53.1536 59.4832 52.9008 59.6338 52.6224 59.7365C52.3441 59.8393 52.0456 59.8922 51.7442 59.8922V59.8845Z" fill="#AFB1B8"/>
<path d="M69.4177 58.7638H67.7302V60.5069H66.8513V56.2413H69.6287V56.9532H67.7302V58.0548H69.4177V58.7638ZM73.6423 58.4708C73.6423 58.8907 73.5681 59.2589 73.4197 59.5753C73.2712 59.8917 73.0583 60.1358 72.781 60.3077C72.5056 60.4796 72.1892 60.5655 71.8318 60.5655C71.4783 60.5655 71.1628 60.4806 70.8855 60.3106C70.6082 60.1407 70.3933 59.8985 70.241 59.5841C70.0886 59.2677 70.0115 58.9044 70.0095 58.4942V58.2833C70.0095 57.8634 70.0847 57.4942 70.2351 57.1759C70.3875 56.8556 70.6013 56.6104 70.8767 56.4405C71.1541 56.2686 71.4705 56.1827 71.8259 56.1827C72.1814 56.1827 72.4968 56.2686 72.7722 56.4405C73.0496 56.6104 73.2634 56.8556 73.4138 57.1759C73.5662 57.4942 73.6423 57.8624 73.6423 58.2804V58.4708ZM72.7517 58.2774C72.7517 57.8302 72.6716 57.4903 72.5115 57.2579C72.3513 57.0255 72.1228 56.9093 71.8259 56.9093C71.531 56.9093 71.3035 57.0245 71.1433 57.255C70.9832 57.4835 70.9021 57.8194 70.9001 58.2628V58.4708C70.9001 58.9063 70.9802 59.2442 71.1404 59.4845C71.3005 59.7247 71.531 59.8448 71.8318 59.8448C72.1267 59.8448 72.3533 59.7296 72.5115 59.4991C72.6697 59.2667 72.7498 58.9288 72.7517 58.4854V58.2774ZM76.4929 59.3878C76.4929 59.2218 76.4343 59.0948 76.3171 59.0069C76.2 58.9171 75.989 58.8233 75.6843 58.7257C75.3796 58.6261 75.1384 58.5284 74.9607 58.4327C74.4763 58.171 74.2341 57.8185 74.2341 57.3751C74.2341 57.1446 74.2986 56.9395 74.4275 56.7599C74.5583 56.5782 74.7449 56.4366 74.9871 56.3351C75.2312 56.2335 75.5046 56.1827 75.8074 56.1827C76.1121 56.1827 76.3835 56.2384 76.6218 56.3497C76.8601 56.4591 77.0447 56.6143 77.1755 56.8155C77.3083 57.0167 77.3748 57.2452 77.3748 57.5011H76.4958C76.4958 57.3058 76.4343 57.1544 76.3113 57.047C76.1882 56.9376 76.0154 56.8829 75.7927 56.8829C75.5779 56.8829 75.4109 56.9288 75.2917 57.0206C75.1726 57.1104 75.113 57.2296 75.113 57.378C75.113 57.5167 75.1824 57.6329 75.321 57.7267C75.4617 57.8204 75.6677 57.9083 75.9392 57.9903C76.4392 58.1407 76.8035 58.3272 77.032 58.5499C77.2605 58.7726 77.3748 59.0499 77.3748 59.3819C77.3748 59.7511 77.2351 60.0411 76.9558 60.252C76.6765 60.461 76.3005 60.5655 75.8279 60.5655C75.4998 60.5655 75.2009 60.506 74.9314 60.3868C74.6619 60.2657 74.4558 60.1007 74.3132 59.8917C74.1726 59.6827 74.1023 59.4405 74.1023 59.1651H74.9841C74.9841 59.6358 75.2654 59.8712 75.8279 59.8712C76.0369 59.8712 76.2 59.8292 76.3171 59.7452C76.4343 59.6593 76.4929 59.5401 76.4929 59.3878ZM81.1833 56.9532H79.8767V60.5069H78.9978V56.9532H77.7087V56.2413H81.1833V56.9532ZM84.2537 58.6583H82.5662V59.8009H84.5466V60.5069H81.6873V56.2413H84.5408V56.9532H82.5662V57.9698H84.2537V58.6583ZM86.6414 58.9454H85.9412V60.5069H85.0623V56.2413H86.6472C87.1511 56.2413 87.5398 56.3536 87.8132 56.5782C88.0867 56.8028 88.2234 57.1202 88.2234 57.5304C88.2234 57.8214 88.1599 58.0645 88.033 58.2599C87.908 58.4532 87.7175 58.6075 87.4617 58.7227L88.3845 60.4659V60.5069H87.4412L86.6414 58.9454ZM85.9412 58.2335H86.6501C86.8708 58.2335 87.0417 58.1778 87.1628 58.0665C87.2839 57.9532 87.3445 57.7979 87.3445 57.6007C87.3445 57.3995 87.2869 57.2413 87.1716 57.1261C87.0583 57.0108 86.8835 56.9532 86.6472 56.9532H85.9412V58.2335ZM91.2673 59.004V60.5069H90.3884V56.2413H92.0525C92.3728 56.2413 92.6541 56.2999 92.8962 56.4171C93.1404 56.5343 93.3279 56.7013 93.4587 56.9181C93.5896 57.1329 93.655 57.378 93.655 57.6534C93.655 58.0714 93.5115 58.4015 93.2244 58.6436C92.9392 58.8839 92.5437 59.004 92.0378 59.004H91.2673ZM91.2673 58.2921H92.0525C92.2849 58.2921 92.4617 58.2374 92.5828 58.128C92.7058 58.0186 92.7673 57.8624 92.7673 57.6593C92.7673 57.4503 92.7058 57.2813 92.5828 57.1524C92.4597 57.0235 92.2898 56.9571 92.073 56.9532H91.2673V58.2921ZM96.8279 58.6583H95.1404V59.8009H97.1208V60.5069H94.2615V56.2413H97.115V56.9532H95.1404V57.9698H96.8279V58.6583ZM100.906 56.9532H99.5994V60.5069H98.7205V56.9532H97.4314V56.2413H100.906V56.9532ZM103.976 58.6583H102.289V59.8009H104.269V60.5069H101.41V56.2413H104.263V56.9532H102.289V57.9698H103.976V58.6583ZM106.364 58.9454H105.664V60.5069H104.785V56.2413H106.37C106.874 56.2413 107.262 56.3536 107.536 56.5782C107.809 56.8028 107.946 57.1202 107.946 57.5304C107.946 57.8214 107.883 58.0645 107.756 58.2599C107.631 58.4532 107.44 58.6075 107.184 58.7227L108.107 60.4659V60.5069H107.164L106.364 58.9454ZM105.664 58.2335H106.373C106.594 58.2335 106.764 58.1778 106.885 58.0665C107.007 57.9532 107.067 57.7979 107.067 57.6007C107.067 57.3995 107.01 57.2413 106.894 57.1261C106.781 57.0108 106.606 56.9532 106.37 56.9532H105.664V58.2335ZM110.829 59.3878C110.829 59.2218 110.77 59.0948 110.653 59.0069C110.536 58.9171 110.325 58.8233 110.02 58.7257C109.716 58.6261 109.474 58.5284 109.297 58.4327C108.812 58.171 108.57 57.8185 108.57 57.3751C108.57 57.1446 108.635 56.9395 108.763 56.7599C108.894 56.5782 109.081 56.4366 109.323 56.3351C109.567 56.2335 109.841 56.1827 110.143 56.1827C110.448 56.1827 110.719 56.2384 110.958 56.3497C111.196 56.4591 111.381 56.6143 111.511 56.8155C111.644 57.0167 111.711 57.2452 111.711 57.5011H110.832C110.832 57.3058 110.77 57.1544 110.647 57.047C110.524 56.9376 110.351 56.8829 110.129 56.8829C109.914 56.8829 109.747 56.9288 109.628 57.0206C109.509 57.1104 109.449 57.2296 109.449 57.378C109.449 57.5167 109.518 57.6329 109.657 57.7267C109.798 57.8204 110.004 57.9083 110.275 57.9903C110.775 58.1407 111.139 58.3272 111.368 58.5499C111.596 58.7726 111.711 59.0499 111.711 59.3819C111.711 59.7511 111.571 60.0411 111.292 60.252C111.012 60.461 110.636 60.5655 110.164 60.5655C109.836 60.5655 109.537 60.506 109.267 60.3868C108.998 60.2657 108.792 60.1007 108.649 59.8917C108.509 59.6827 108.438 59.4405 108.438 59.1651H109.32C109.32 59.6358 109.601 59.8712 110.164 59.8712C110.373 59.8712 110.536 59.8292 110.653 59.7452C110.77 59.6593 110.829 59.5401 110.829 59.3878Z" fill="#AFB1B8"/>
</svg>
